<?xml version="1.0" encoding="utf-8"?>
<!-- Generator: Adobe Illustrator 24.3.0, SVG Export Plug-In . SVG Version: 6.00 Build 0)  -->
<svg version="1.1" id="Livello_1" xmlns="http://www.w3.org/2000/svg" xmlns:xlink="http://www.w3.org/1999/xlink" x="0px" y="0px"
	 viewBox="0 0 1465.9 1337.8" style="enable-background:new 0 0 1465.9 1337.8;" xml:space="preserve">
<style type="text/css">
	.st0{display:none;fill:#7F7976;}
	.st1{display:none;fill:#FFFFFF;}
	.st2{fill:#861719;}
</style>
<path class="st0" d="M1190.2,660.7c-8.3-31-4.4-60.8-3.2-86.4s-0.1-45.6-7-57.5s-23.5-23.2-46.3-34.9s-50.6-23.1-73.2-45.9
	s-34.3-50.4-46-73.2s-22.9-39.4-34.9-46.3s-31.9-8.4-57.5-7.1s-55.3,5.3-86.4-3.1s-54.9-26.6-76.5-40.5S719.9,243,706,243
	s-31.8,8.8-53.2,22.8s-45.5,32.2-76.5,40.5s-60.8,4.4-86.4,3.1s-45.6,0.2-57.6,7.1s-23.2,23.4-34.9,46.3s-23.2,50.6-46,73.2
	s-50.5,34.3-73.2,45.9s-39.4,22.9-46.3,34.9s-8.4,31.9-7,57.5s5.3,55.3-3.1,86.4s-26.6,54.9-40.5,76.5s-22.8,39.5-22.8,53.3
	s8.9,31.7,22.8,53.2s32.1,45.5,40.5,76.5s4.4,60.8,3.1,86.3s0.1,45.5,7,57.5s23.4,23.3,46.3,34.9s50.5,23.2,73.2,45.9
	s34.3,50.4,46,73.3s22.9,39.4,34.9,46.3s32,8.3,57.6,7c25.6-1.3,55.2-5.2,86.4,3.1s54.9,26.7,76.5,40.5s39.5,22.8,53.2,22.8
	s31.7-8.8,53.3-22.8s45.4-32.2,76.5-40.5s60.8-4.4,86.4-3.1s45.5-0.1,57.5-7s23.2-23.4,34.9-46.3c11.7-22.8,23.2-50.6,46-73.3
	s50.4-34.2,73.2-45.9s39.4-22.9,46.3-34.9s8.3-31.9,7-57.5s-5.2-55.3,3.2-86.3s26.6-54.9,40.5-76.5s22.8-39.5,22.8-53.2
	s-8.9-31.8-22.8-53.3s-32.3-45.5-40.5-76.5"/>
<path class="st1" d="M596.7,874.2c1.9-12-1.9-24.2-10.3-33L490.7,742l130.2-19.9c12.6-1.9,23.5-10.1,28.9-21.6l56.6-120.6
	l56.5,120.6c5.4,11.5,16.3,19.6,28.9,21.6l130.1,20.2l-95.5,98c-8.5,8.7-12.4,21-10.4,33l22,136.1L725.4,947
	c-5.8-3.5-12.5-5.3-19.2-5.2c-6.5,0-12.8,1.8-18.4,5.1l-113.2,62.5L596.7,874.2z M966.4,670.7l-143.2-22l-62.1-135.4
	c-13.6-29.9-48.9-43-78.8-29.4c-13,5.9-23.3,16.3-29.3,29.2l-63.4,135.5l-143.8,22.5c-32.5,4.8-54.9,35-50.1,67.5
	c1.8,12.4,7.6,23.9,16.3,32.9l105.5,108.6l-24.7,151.1c-5.7,32.6,16.1,63.7,48.8,69.4c3.3,0.6,6.6,0.9,9.9,0.9
	c9.9-0.4,20.2-2.5,29.1-7.5l125.8-69.7l124.4,69.4c12.5,7.5,27.4,10.2,41.7,7.6c32.2-6,53.5-37.2,47.5-69l-24.8-152.2l104.8-108.9
	c23-23.4,22.7-61.1-0.7-84.1C990.3,678.3,978.8,672.5,966.4,670.7"/>
<path class="st0" d="M1296.6,555.5l40.6-22.7l-19.2-34.4l-40.6,22.6L1296.6,555.5z M1356.1,518.6l80.4-39.2l29.3-16.4l-20.8-37.1
	l-29.1,16.2l-75.6,48.4L1356.1,518.6z M1229.9,447.1l28.1,28.8l138-134.8l-41.8-42.9c-46.6,22.8-109.8,55.1-131.1,69.3l-0.2-0.2
	c16.3-24.2,49.9-80.4,75.3-126.4l-43.4-44.5l-138,134.8l26.6,27.2l49.5-48.3c23.6-23.1,51.5-51.5,66.6-68.5l1,1
	c-21.8,33-60.2,98.3-88.1,145.5l24.9,25.5c56.2-29,115.6-60,150.1-81.2l1,1c-16.2,14.6-43,40.1-66.5,63L1229.9,447.1z M1145.9,211.8
	l-80.7-45.1l20.1-36l84.1,47l16.7-29.8l-119.5-66.8l-94.1,168.4l120,67.1l21.1-27.3l-89-49.7l23.9-42.8l80.7,45.1L1145.9,211.8z
	 M859.6,215l40.2,10.9l41.5-153.2l56.5,15.3l8.9-32.9L853.2,13.5l-8.9,32.9l56.8,15.4L859.6,215z M757.3,5.8L740.2,198l41.5,3.7
	L798.8,9.5L757.3,5.8z M500.3,229.1c-0.2-40.3-0.4-107.5-2.6-142.6l0.3-0.1c15.1,30.1,47.9,86,68.8,124.7l41.9-11.3L608.6,0
	l-38.9,10.5c1.1,30.8,2.5,107.8,7.4,150.6l-0.3,0.1c-15.5-32.7-53.7-99.8-73.1-132.8l-36.2,9.8c1.3,47.8,0.8,117.6,3,153.8l-0.3,0.1
	c-7.7-20-25.9-56-66.6-136.6l-43,11.6l98,173.4L500.3,229.1z M331.3,172.2L254.1,223l-22.6-34.4l80.5-53l-18.8-28.5l-114.3,75.3
	l106.1,161.1l114.8-75.6l-14.6-31.3l-85.1,56l-27-41l77.2-50.8L331.3,172.2z M171.9,464.2l-44.9-38c-26.3-22.2-57-47.5-70.8-57.3
	l0.4-0.4c23.4,7,123.7,27.2,166,35.8l31.6-37.4L106.8,242.3l-24.4,28.8L126,308c24.2,20.5,49.9,42.2,66.7,53.5l-0.4,0.4
	c-21.8-6.7-110.5-23.3-158.9-32.8L0,368.7l147.3,124.5L171.9,464.2z"/>
<g>
	<path class="st2" d="M846.4,885.3c-33.1,0.5-59.5,27.8-59,60.9c0.5,32.4,26.6,58.5,59,59c32.9,0.2,59.7-26.2,59.9-59.1
		c0-0.3,0-0.6,0-0.9C906.2,912.2,879.4,885.4,846.4,885.3"/>
	<path class="st2" d="M576.1,698.4c32.9,0,59.9-25.8,59.9-58.7c-0.1-33-26.9-59.8-59.9-60c-34,0-59.9,25.8-59.9,58.8
		C516.3,671.6,543.1,698.3,576.1,698.4"/>
	<path class="st2" d="M846.4,1076.9c-71.7,0-130.4-58.8-130.4-130.4s58.8-130.4,130.4-130.4c72.9,0,130.4,57.6,130.4,130.4
		C976.8,1018.2,918,1076.9,846.4,1076.9 M511.5,1040.4c-12.9,13.6-34.5,14.2-48.1,1.3c-0.4-0.4-0.9-0.8-1.3-1.3
		c-14.1-12.9-14.1-35.2,0-49.3L911,543.3c12.9-14.1,35.3-14.1,49.4,0c12.9,14.1,12.9,36.4-1.2,49.4L511.5,1040.4z M576.1,508.1
		c71.7,0,130.5,58.8,130.5,130.5s-58.8,130.4-130.5,130.4c-72.9,0-130.4-57.6-130.4-130.4C445.6,566.8,504.4,508.1,576.1,508.1
		 M1238.9,734.8l-41.1-61.1c-3.5-7.1-4.7-14.2-4.7-22.3l4.7-74c2.6-41.8-20.1-81.1-57.6-99.7l-65.8-32.9
		c-6.7-3.2-12.1-8.6-15.3-15.3l-32.9-65.8c-18.9-37.3-58.1-59.9-99.9-57.6l-74,4.7c-7.1,0-15.3-1.2-21.2-5.9l-61.1-40
		c-34.8-23.5-80.4-23.5-115.2,0L593.7,306c-7.4,3.2-15.4,4.8-23.5,4.7l-74-4.7c-41.8-2.6-81.2,20.1-99.9,57.6l-32.9,65.9
		c-3.2,6.7-8.6,12.1-15.3,15.3l-65.8,32.9c-37.3,18.9-59.9,58.1-57.6,99.9l4.7,74c0,7.1-1.2,15.3-5.9,21.2l-40,61.1
		c-23.5,35.2-23.5,81.1,0,115.1l41.1,61.1c3.2,7.4,4.9,15.4,4.7,23.5l-4.7,74.1c-2.6,41.8,20.1,81.2,57.6,99.9l65.8,32.9
		c7.1,3.5,11.8,9.4,15.3,15.3l32.9,65.8c18.9,37.3,58.1,59.9,99.9,57.6l74-4.7c7.1,0,15.3,1.2,21.2,5.9l61.1,40
		c34.8,23.5,80.4,23.5,115.2,0l61.1-41.1c6.4-3.7,13.7-5.7,21.2-5.9l74,4.7c41.8,2.6,81.2-20,99.9-57.6l32.9-65.8
		c3.2-6.7,8.6-12.1,15.3-15.3l65.8-32.9c37.3-18.9,59.9-58.1,57.6-99.9l-2.3-72.9c0-7.1,1.2-15.3,5.9-21.2l39.9-62.3
		c23.5-35.3,23.5-81.1,0-115.2"/>
	<path class="st2" d="M1255.3,471l36.5-29.4l-25-31l-36.5,29.4L1255.3,471z M1308.3,424.3l73.3-52.5l26.4-21.3l-26.9-33.4
		l-26.1,21.1l-67,60.9L1308.3,424.3z M1276.4,309.1l-71.2-60.2l26.8-31.7l74.2,62.7l22.2-26.2l-105.4-89.1L1097.5,313l105.9,89.5
		l26.1-23l-78.5-66.3l31.9-37.8l71.2,60.2L1276.4,309.1z M952.6,235.6l120.3,59.8l19.6-28.7l-87-43.2l71.2-143.4l-37.6-18.7
		L952.6,235.6z M824,122.7c17.5-32.6,32.6-60.8,41-78.7h0.3c1.4,18.1,5.1,45.5,10.9,88.7L824,122.7z M878.5,168.1l7.4,47.1l43.5,8.3
		L898,19.5l-51.9-9.9L744.7,188.2l40.8,7.8l23.1-41.3L878.5,168.1z M564.4,147.3c7.7,35,35.9,56.9,85.2,52.5
		c51.2-4.5,75.7-31.3,72.6-66.5c-2.5-27.6-16.7-47.3-74.1-55.8c-32.1-4.3-40.8-9.2-42-22.7c-1.2-13.8,8.3-21.7,25.5-23.2
		c25-2.2,32.7,10.1,36,22l42.1-3.7C704.3,21.7,681.3-4,629.9,0.5c-45.9,4.1-69.2,29.1-66.2,62.9c2.3,26.2,17,44.4,70.9,52.1
		c33.9,4.7,43.7,10.7,45.2,26.6c1.2,14.1-7.5,23.9-30,25.9c-22.5,2-37.1-5.5-43.3-24.5L564.4,147.3z M357.6,292.9L330,240.5
		c-16.2-30.7-35.5-65.9-44.6-80.3l0.5-0.3c19.3,15.3,105.4,72.1,141.7,96l43.7-23.1L380.5,61l-33.7,17.7l26.9,50.9
		c14.9,28.3,30.7,58.2,42.2,75.1l-0.5,0.3c-17.9-14.5-94.5-63.5-136.3-90.6l-46.2,24.4l90.8,172.1L357.6,292.9z M109.9,287
		c25.3-25.9,56.5-16.7,83,9.2c24.9,24.3,38,55.7,11.8,82.5c-24.1,24.7-56.3,16.5-83.6-10.2C94,342.1,85.2,312.3,109.9,287 M86.7,262
		c-42.2,43.2-35.8,98.8,4.6,138.3c40,39.1,94,47.2,136.8,3.4c44.2-45.3,33.5-101-5.2-138.9C180.2,223.1,126.5,221.2,86.7,262"/>
</g>
</svg>
